# xmcd CD database file
#
# Track frame offsets:
#	150
#	17963
#	37886
#	55486
#	71922
#	91308
#	113189
#	131165
#	152552
#	166309
#	182345
#	197576
#	215566
#	235010
#	249809
#	274316
#	291777
#	309504
#
# Disc length: 4348 seconds
#
# Revision: 0
# Processed by: cddbd v1.5.1PL0 Copyright (c) Steve Scherf et al.
# Submitted via: CDex 1.50
#
DISCID=fd10fa12
DTITLE=Chicago Teddybears Society Jazz Band - Bear Essentials
DYEAR=2004
DGENRE=Jazz
TTITLE0=Ce M'sier Qui Parle
TTITLE1=Oh Baby
TTITLE2=When you'r smiling
TTITLE3=The Dormouse
TTITLE4=St Phillip Street Breakdown
TTITLE5=Rent Party Blues
TTITLE6=Jambalaya on the Bayou
TTITLE7=Take the 'A' train
TTITLE8=Give me your telephone number
TTITLE9=Shout 'em Aunt Tilly
TTITLE10=Hindustan
TTITLE11=My Buddy
TTITLE12=It don't mean a thing (If it aint got that swing)
TTITLE13=Shine
TTITLE14=Sultry serenade
TTITLE15=Gee baby ain't I good to you
TTITLE16=When you wore a tulip
TTITLE17=Twelfth Street rag
EXTD=YEAR: 2004
EXTT0=
EXTT1=
EXTT2=
EXTT3=
EXTT4=
EXTT5=
EXTT6=
EXTT7=
EXTT8=
EXTT9=
EXTT10=
EXTT11=
EXTT12=
EXTT13=
EXTT14=
EXTT15=
EXTT16=
EXTT17=
PLAYORDER=
